<svg xmlns="http://www.w3.org/2000/svg" width="60.528" height="51.547" viewBox="0 0 60.528 51.547">
  <g id="Group_539" data-name="Group 539" transform="translate(0 -37.984)">
    <g id="Group_535" data-name="Group 535" transform="translate(0 37.984)">
      <g id="Group_534" data-name="Group 534">
        <path id="Path_10930" data-name="Path 10930" d="M42.5,37.984a17.612,17.612,0,0,0-12.237,4.9,17.612,17.612,0,0,0-12.237-4.9A18.268,18.268,0,0,0,0,56.444C0,62.345,5.029,69.7,14.949,78.3a142.227,142.227,0,0,0,14.68,11.044,1.182,1.182,0,0,0,1.271,0A142.227,142.227,0,0,0,45.58,78.3C55.5,69.7,60.528,62.345,60.528,56.444A18.268,18.268,0,0,0,42.5,37.984ZM44.051,76.5A141.124,141.124,0,0,1,30.264,86.937,141,141,0,0,1,16.5,76.516C7.252,68.5,2.364,61.556,2.364,56.444a15.9,15.9,0,0,1,15.663-16.1A15.327,15.327,0,0,1,29.4,45.373a1.182,1.182,0,0,0,1.738,0A15.327,15.327,0,0,1,42.5,40.349a15.9,15.9,0,0,1,15.663,16.1C58.164,61.552,53.284,68.487,44.051,76.5Z" transform="translate(0 -37.984)" fill="#2b5551"/>
      </g>
    </g>
    <g id="Group_538" data-name="Group 538" transform="translate(40.047 44.508)">
      <g id="Group_537" data-name="Group 537">
        <g id="Group_536" data-name="Group 536">
          <path id="Path_10931" data-name="Path 10931" d="M339.77,93.184l-.044.008a1.182,1.182,0,1,0,.413,2.328l.024,0a1.182,1.182,0,0,0-.392-2.332Z" transform="translate(-338.75 -93.167)" fill="#2b5551"/>
          <path id="Path_10932" data-name="Path 10932" d="M384.35,99.8a11.376,11.376,0,0,0-5.805-4.182,1.182,1.182,0,0,0-.693,2.26,9.365,9.365,0,0,1,6.417,8.992,1.182,1.182,0,1,0,2.364,0A11.93,11.93,0,0,0,384.35,99.8Z" transform="translate(-372.492 -95.281)" fill="#2b5551"/>
        </g>
      </g>
    </g>
  </g>
</svg>
