<svg xmlns="http://www.w3.org/2000/svg" width="532.023" height="502.451" viewBox="0 0 532.023 502.451">
  <g id="Group_82" data-name="Group 82" transform="translate(0)">
    <g id="Polygon_3" data-name="Polygon 3" transform="translate(68.564 78.915)" fill="none">
      <path d="M296.171,0l98.724,172.31-98.724,172.31H98.724L0,172.31,98.724,0Z" stroke="none"/>
      <path d="M 100.46240234375 2.999969482421875 L 3.457489013671875 172.3102874755859 L 100.4623413085938 341.6205444335938 L 294.4323120117188 341.6205444335938 L 391.4371337890625 172.3102874755859 L 294.4323120117188 2.999969482421875 L 100.46240234375 2.999969482421875 M 98.72372436523438 -3.0517578125e-05 L 296.1710205078125 -3.0517578125e-05 L 394.8946533203125 172.3102874755859 L 296.1710205078125 344.6205444335938 L 98.72366333007812 344.6205444335938 L -3.0517578125e-05 172.3102874755859 L 98.72372436523438 -3.0517578125e-05 Z" stroke="none" fill="#be7b36"/>
    </g>
    <g id="Polygon_2" data-name="Polygon 2" transform="translate(138.818) rotate(22)" fill="none">
      <path d="M318.065,0,424.086,185.284,318.065,370.569H106.022L0,185.284,106.022,0Z" stroke="none"/>
      <path d="M 107.7613220214844 3 L 3.456390380859375 185.2842712402344 L 107.7612609863281 367.5685424804688 L 316.3247680664062 367.5685424804688 L 420.6296997070312 185.2842712402344 L 316.3247680664062 3 L 107.7613220214844 3 M 106.0215454101562 0 L 318.0645446777344 0 L 424.0860900878906 185.2842712402344 L 318.0645446777344 370.5685424804688 L 106.021484375 370.5685424804688 L 0 185.2842712402344 L 106.0215454101562 0 Z" stroke="none" fill="#be7b36"/>
    </g>
  </g>
</svg>
