<?xml version="1.0" encoding="UTF-8" standalone="no"?>
<!DOCTYPE svg PUBLIC "-//W3C//DTD SVG 1.1//EN" "http://www.w3.org/Graphics/SVG/1.1/DTD/svg11.dtd">
<svg width="100%" height="100%" viewBox="0 0 1999 1120" version="1.1" xmlns="http://www.w3.org/2000/svg" xmlns:xlink="http://www.w3.org/1999/xlink" xml:space="preserve" xmlns:serif="http://www.serif.com/" style="fill-rule:evenodd;clip-rule:evenodd;stroke-linejoin:round;stroke-miterlimit:2;">
    <g transform="matrix(1,0,0,1,-52.1916,-227.689)">
        <g transform="matrix(9.52276,0,0,9.88463,-162.559,-1683.87)">
            <g>
                <path d="M224.249,202.622C219.051,199.178 211.995,198.417 204.888,200.53C198.528,202.419 193.057,206.174 188.091,209.95C180.205,215.949 173.298,223.02 166.138,230.528L166.137,230.528C163.012,233.819 155.893,240.356 152.725,243.477C149.196,246.952 145.826,250.087 142.615,252.876C140.521,254.695 138.713,256.162 137.179,257.287L137.179,225.311C137.179,221.31 137.313,211.291 137.574,207.919C137.838,204.55 138.624,202.184 139.707,200.653C141.978,197.443 148.276,194.34 151.467,193.558L151.467,193.387L103.449,193.387L103.449,193.558C106.64,194.34 112.938,197.443 115.209,200.653C116.292,202.184 117.077,204.55 117.341,207.919C117.603,211.291 117.736,221.31 117.736,225.311L117.736,257.287C116.203,256.162 114.395,254.695 112.3,252.876C109.089,250.087 105.72,246.952 102.191,243.477C99.022,240.356 91.903,233.819 88.778,230.528L88.777,230.528C81.617,223.02 74.71,215.949 66.824,209.95C61.858,206.174 56.387,202.419 50.027,200.53C42.92,198.417 35.865,199.178 30.666,202.622C25.745,205.883 22.635,211.576 22.553,217.48C22.471,223.385 25.421,229.162 30.25,232.558C34.007,235.203 38.436,236.002 42.1,234.697C44.887,233.704 46.977,231.44 47.836,228.869C48.145,228.068 48.335,227.207 48.367,226.302C48.52,221.937 45.106,218.274 40.741,218.121C36.376,217.968 32.713,221.382 32.56,225.747C32.477,228.114 33.449,230.269 35.047,231.776C33.975,231.403 32.915,230.878 31.923,230.18C27.869,227.328 25.392,222.478 25.46,217.52C25.53,212.564 28.14,207.783 32.272,205.046C36.685,202.123 43.013,201.477 49.198,203.317C55.112,205.073 60.318,208.655 65.063,212.265C73.477,218.665 80.829,226.391 88.612,234.571C93.005,239.187 97.559,243.947 102.578,248.806C101.577,250.02 99.796,252.107 97.214,255.087C94.161,258.617 90.527,262.748 86.314,267.487C82.104,272.226 77.602,277.281 72.809,282.652C68.018,288.023 63.41,293.183 58.987,298.132C57.935,299.396 56.724,300.66 55.354,301.923C53.986,303.187 52.668,304.32 51.405,305.32C50.822,305.782 50.282,306.208 49.766,306.613L75.04,306.613C80.416,300.398 85.578,294.429 90.501,288.734C96.558,281.731 102.85,274.65 109.377,267.487C112.118,264.434 113.986,262.538 114.985,261.801C115.987,261.065 116.856,260.695 117.592,260.695C117.645,260.695 117.686,260.702 117.736,260.703L117.736,274.595C117.736,277.545 117.709,280.282 117.657,282.81C117.603,285.338 117.578,287.339 117.578,288.813C117.578,290.498 117.551,292.263 117.499,294.104C117.445,295.948 117.341,297.686 117.183,299.317C117.025,300.951 116.788,302.397 116.472,303.661C116.156,304.925 115.735,305.872 115.209,306.505C115.176,306.543 115.132,306.576 115.099,306.613L139.817,306.613C139.783,306.576 139.74,306.543 139.707,306.505C139.181,305.872 138.759,304.925 138.443,303.661C138.127,302.397 137.89,300.951 137.732,299.317C137.574,297.686 137.47,295.948 137.417,294.104C137.365,292.263 137.337,290.498 137.337,288.813C137.337,287.339 137.313,285.338 137.259,282.81C137.207,280.282 137.179,277.545 137.179,274.595L137.179,260.703C137.229,260.702 137.271,260.695 137.323,260.695C138.059,260.695 138.928,261.065 139.93,261.801C140.93,262.538 142.798,264.434 145.538,267.487C152.066,274.65 158.357,281.731 164.414,288.734C169.337,294.429 174.499,300.398 179.875,306.613L205.149,306.613C204.634,306.208 204.093,305.782 203.51,305.32C202.247,304.32 200.929,303.187 199.561,301.923C198.191,300.66 196.98,299.396 195.929,298.132C191.505,293.183 186.897,288.023 182.106,282.652C177.313,277.281 172.811,272.226 168.601,267.487C164.388,262.748 160.754,258.617 157.701,255.087C155.119,252.107 153.338,250.02 152.337,248.806C157.356,243.947 161.91,239.187 166.303,234.571C174.086,226.391 181.438,218.665 189.852,212.265C194.597,208.655 199.803,205.073 205.717,203.317C211.902,201.477 218.23,202.123 222.643,205.046C226.775,207.783 229.385,212.564 229.455,217.52C229.523,222.478 227.046,227.328 222.992,230.18C222,230.878 220.94,231.403 219.868,231.776C221.466,230.269 222.438,228.114 222.355,225.747C222.202,221.382 218.539,217.968 214.174,218.121C209.809,218.274 206.395,221.937 206.548,226.302C206.58,227.207 206.77,228.068 207.079,228.869C207.938,231.44 210.028,233.704 212.815,234.697C216.479,236.002 220.908,235.203 224.665,232.558C229.494,229.162 232.444,223.385 232.363,217.48C232.28,211.576 229.171,205.883 224.249,202.622Z" style="fill:rgb(235,235,235);fill-rule:nonzero;"/>
            </g>
        </g>
    </g>
</svg>
